# xmcd
#
# Track frame offsets:
#	150
#	9294
#	24033
#	37864
#	52322
#	67902
#	83586
#	99441
#	119328
#	137921
#	152946
#	166903
#	181959
#	195532
#	212103
#	222300
#	240051
#	255134
#	268570
#	281228
#	293359
#	305849
#	320691
#	334161
#	348838
#
# Disc length: 4781 seconds
#
# Revision: 0
# Processed by: cddbd v1.5.1PL2 Copyright (c) Steve Scherf et al.
# Submitted via: dBpowerAMP V4.0
#
DISCID=5812ab19
DTITLE=Various Artist - Exitos y exitasos al 2x2
DYEAR=1900
DGENRE=grupero
TTITLE0=Intro
TTITLE1=El Chapo - Para que regreses
TTITLE2=El Chapo - Recostada en la cama
TTITLE3=k-paz de la sierra - pero te vas a arrepentir
TTITLE4=k-paz de la sierra - volveré
TTITLE5=vagón chicano - el tiempo en que vivimos
TTITLE6=vagón chicano - viernes sin tu amor
TTITLE7=mariano barba - aliado del tiempo
TTITLE8=mariano barba - una noche más contigo
TTITLE9=cuisillos - descontrolado
TTITLE10=cuisillos - adicto
TTITLE11=montez de durango - esta triste guitarra
TTITLE12=montez de durango - quiero saber de tí
TTITLE13=sergio vega - dueño de tí
TTITLE14=sergio vega - como un tatuaje
TTITLE15=los temerarios - por tu maldito amor
TTITLE16=los temerarios - que de raro tiene
TTITLE17=alacranes musical - si te vuelves a enamorar
TTITLE18=alacranes musical - alacranes musical
TTITLE19=el chalinillo - a quien sonrías
TTITLE20=el chalinillo - celoso
TTITLE21=pesado - a chillar a otra parte
TTITLE22=pesado - ojalá que te mueras
TTITLE23=patrulla 81 - eres divina
TTITLE24=patrulla 81 - como pude enamorarme de tí
EXTD=
EXTT0=
EXTT1=
EXTT2=
EXTT3=
EXTT4=
EXTT5=
EXTT6=
EXTT7=
EXTT8=
EXTT9=
EXTT10=
EXTT11=
EXTT12=
EXTT13=
EXTT14=
EXTT15=
EXTT16=
EXTT17=
EXTT18=
EXTT19=
EXTT20=
EXTT21=
EXTT22=
EXTT23=
EXTT24=
PLAYORDER=
